<svg xmlns="http://www.w3.org/2000/svg" viewBox="0 0 37.75 17.28"><defs><style>.cls-1{fill:#9ca0a4;}.cls-2{fill:#3c6cb4;}.cls-3{fill:#d5aa2b;}.cls-4{fill:#cf382e;}.cls-5{fill:#eab853;}.cls-6{fill:#f7d291;}.cls-7{fill:#674e23;}</style></defs><title>Asset 1</title><g id="Layer_2" data-name="Layer 2"><g id="Layer_2-2" data-name="Layer 2"><path class="cls-1" d="M33.92,17.28H3.09A3.1,3.1,0,0,1,0,14.17v-11A3.1,3.1,0,0,1,3.09,0H27.8c5.48,0,10.38,2.75,9.92,10v3.43A3.82,3.82,0,0,1,33.92,17.28Z"/><rect class="cls-2" y="9.45" width="37.72" height="1.16"/><rect class="cls-3" y="10.61" width="37.72" height="1.16"/><rect class="cls-4" y="11.76" width="37.72" height="1.16"/><path d="M37.72,9.45H0V3.12c0-.71.26-1.26,1.54-1.26H31c4.68,0,6.71,2.77,6.71,6.7Z"/><path class="cls-5" d="M6,8.58H2.69a1.46,1.46,0,0,1-1.41-1.5V4.91a1.46,1.46,0,0,1,1.41-1.5H6a1.46,1.46,0,0,1,1.41,1.5V7.08A1.46,1.46,0,0,1,6,8.58Z"/><path class="cls-5" d="M13.08,8.58H9.82a1.46,1.46,0,0,1-1.41-1.5V4.91a1.46,1.46,0,0,1,1.41-1.5h3.26a1.46,1.46,0,0,1,1.42,1.5V7.08A1.46,1.46,0,0,1,13.08,8.58Z"/><path class="cls-5" d="M20.13,8.58H16.86a1.46,1.46,0,0,1-1.41-1.5V4.91a1.46,1.46,0,0,1,1.41-1.5h3.27a1.46,1.46,0,0,1,1.41,1.5V7.08A1.46,1.46,0,0,1,20.13,8.58Z"/><rect class="cls-6" x="24.57" y="2.49" width="8.74" height="6.96" rx="2.03"/><path class="cls-7" d="M31.63,5.86h0a0,0,0,0,1,0,0V9.44a0,0,0,0,1,0,0h-2.1a0,0,0,0,1,0,0V8A2.1,2.1,0,0,1,31.63,5.86Z"/><ellipse class="cls-7" cx="31.1" cy="5.3" rx="0.86" ry="0.8"/></g></g></svg>